<svg width="231" height="47" viewBox="0 0 231 47" fill="none" xmlns="http://www.w3.org/2000/svg">
<path d="M0 34.7201H6.94712V20.5788H22.1671V34.7201H29.1143V0H22.1671V14.0358H6.94712V0H0V34.7201Z" fill="#002338"/>
<path d="M38.1942 19.6818C38.6185 16.7269 40.6867 14.7745 43.8686 14.7745C46.8914 14.7745 48.9596 16.5686 49.2248 19.6818H38.1942ZM55.7477 21.6341C55.7477 17.6239 54.634 14.5107 52.4067 12.3473C50.1263 10.1839 47.3687 9.07578 44.0807 9.07578C40.6337 9.07578 37.6109 10.2366 35.0654 12.5584C32.5199 14.9328 31.2471 18.1516 31.2471 22.2673C31.2471 26.3831 32.5729 29.5491 35.1714 31.818C37.77 34.0869 40.8458 35.2478 44.505 35.2478C49.1187 35.2478 52.7779 33.5065 55.5355 30.0767L51.4521 26.0137C49.7551 28.2299 47.4747 29.338 44.558 29.338C41.4292 29.338 38.8836 27.9661 38.3003 24.8001H55.5355C55.6946 23.6392 55.7477 22.5839 55.7477 21.6341Z" fill="#002338"/>
<path d="M74.4267 9.70897V21.9507C74.4267 26.172 72.3585 28.7576 68.9115 28.7576C65.7296 28.7576 64.0326 26.6469 64.0326 23.4282V9.70897H57.2445V24.3252C57.2445 27.5439 58.2521 30.0239 60.2673 31.7652C62.2295 33.5593 64.6689 34.4563 67.4796 34.4563C70.8206 34.4563 73.207 33.3482 74.5328 31.132V34.298C74.5328 38.3082 71.9873 40.5772 68.3281 40.5772C64.9871 40.5772 62.3886 38.7304 61.5931 35.0895L55.4945 37.2529C57.0324 43.0044 62.1234 46.3287 68.063 46.3287C71.6161 46.3287 74.7449 45.2206 77.3435 43.0044C79.942 40.7355 81.2148 37.675 81.2148 33.7703V9.70897H74.4267Z" fill="#002338"/>
<path d="M111.288 9.07578C107.735 9.07578 105.242 10.5005 103.81 13.3498C102.697 10.5005 100.363 9.07578 96.9162 9.07578C94.0525 9.07578 91.9312 10.2894 90.6055 12.6639V9.70897H83.8705V34.7201H90.6585V20.2094C90.6585 16.6741 92.3555 14.7745 94.954 14.7745C97.2874 14.7745 98.8253 16.3047 98.8253 19.2069V34.7201H105.613V20.2094C105.613 16.6741 107.416 14.7745 110.015 14.7745C112.348 14.7745 113.727 16.3047 113.727 19.2069V34.7201H120.515V18.5209C120.515 15.5133 119.614 13.1915 117.811 11.5558C116.008 9.92004 113.833 9.07578 111.288 9.07578Z" fill="#002338"/>
<path d="M134.981 14.8801C138.959 14.8801 141.716 17.835 141.716 22.109C141.716 26.4886 138.959 29.3908 134.981 29.3908C131.11 29.3908 128.299 26.4886 128.299 22.109C128.299 17.835 131.11 14.8801 134.981 14.8801ZM125.382 12.8749C122.837 15.4077 121.564 18.5209 121.564 22.1618C121.564 25.8027 122.837 28.9159 125.382 31.4486C127.928 33.9814 131.11 35.2478 134.981 35.2478C138.852 35.2478 142.034 33.9814 144.633 31.4486C147.178 28.9159 148.451 25.8027 148.451 22.1618C148.451 18.5209 147.178 15.4077 144.633 12.8749C142.034 10.3422 138.852 9.07578 134.981 9.07578C131.11 9.07578 127.928 10.3422 125.382 12.8749Z" fill="#002338"/>
<path d="M164.368 9.07578C160.974 9.07578 158.429 10.3422 156.785 12.8222V9.70897H150.05V34.7201H156.838V21.6869C156.838 17.6239 158.8 14.7745 162.353 14.7745C165.27 14.7745 166.755 16.6213 166.755 20.2622V34.7201H173.543V18.7848C173.543 12.6639 169.672 9.07578 164.368 9.07578Z" fill="#002338"/>
<path d="M188.776 29.6018C184.692 29.6018 181.882 26.6997 181.882 22.109C181.882 17.4656 184.692 14.7218 188.67 14.7218C192.488 14.7218 195.67 17.149 195.67 22.1618C195.67 26.9635 192.753 29.6018 188.776 29.6018ZM187.556 9.07578C184.215 9.07578 181.298 10.2366 178.859 12.5056C176.366 14.8273 175.147 18.046 175.147 22.109C175.147 26.2775 176.419 29.4963 178.912 31.7652C181.404 34.0869 184.374 35.2478 187.821 35.2478C191.162 35.2478 193.814 34.0342 195.776 31.6597V34.7201H202.511V0H195.723V13.086C194.079 10.3949 191.321 9.07578 187.556 9.07578Z" fill="#002338"/>
<path d="M217.53 14.8801C221.507 14.8801 224.265 17.835 224.265 22.109C224.265 26.4886 221.507 29.3908 217.53 29.3908C213.659 29.3908 210.848 26.4886 210.848 22.109C210.848 17.835 213.659 14.8801 217.53 14.8801ZM207.931 12.8749C205.386 15.4077 204.113 18.5209 204.113 22.1618C204.113 25.8027 205.386 28.9159 207.931 31.4486C210.477 33.9814 213.659 35.2478 217.53 35.2478C221.401 35.2478 224.583 33.9814 227.182 31.4486C229.727 28.9159 231 25.8027 231 22.1618C231 18.5209 229.727 15.4077 227.182 12.8749C224.583 10.3422 221.401 9.07578 217.53 9.07578C213.659 9.07578 210.477 10.3422 207.931 12.8749Z" fill="#002338"/>
</svg>
