<svg viewBox="0 0 58 33" height="33" width="58" xmlns="http://www.w3.org/2000/svg">
    <defs>
        <linearGradient y2="29.369%" y1="70.861%" x2="12.487%" x1="85.297%" id="a">
            <stop stop-color="#EF7D00" offset="0%"></stop>
            <stop stop-color="#EF7D00" offset="100%"></stop>
        </linearGradient>
    </defs>
    <path d="M.544 14.422v17.676s6.184.959 6.184-4.92V9.502S.544 8.544.544 14.422zM3.647 0A3.636 3.636 0 0 0 .28 2.28a3.76 3.76 0 0 0 .781 4.044 3.586 3.586 0 0 0 3.964.808c1.36-.573 2.247-1.925 2.247-3.425C7.272 1.664 5.651.006 3.647 0zm26.075 15.583c0-6.266-4.44-8.21-9.315-8.21-2.88.032-5.738.522-8.469 1.453 0 0-.473 5.168 4.545 4.335 6.282-1.046 7.037.565 7.037 4.048v9.476c-1.243.106-2.559.18-3.875.18-2.397 0-4-.474-4.2-2.424-.186-1.789.865-2.687 3.356-3.017a14.52 14.52 0 0 1 2.457-.11s.213-4.307-3.769-4.307c-6.378 0-8.217 4.071-7.965 7.75.322 4.728 3.898 7.408 10.384 7.408 5.988 0 9.81-.785 9.81-.785v-5.552c-.005-2.306-.007-10.239-.007-10.245h.01zm24.191-8.17c2.001 0 3.624-1.652 3.626-3.692.002-2.04-1.618-3.695-3.618-3.7-2.001-.003-3.627 1.646-3.633 3.686 0 2.042 1.622 3.7 3.625 3.706zM42.97 26.576c-3.325.533-4.286-.785-4.286-4.098V15.43h4.531c5.43 0 4.54-5.965 4.54-5.965h-4.738c-2.772 0-3.898 1.565-4.333 3.094V3.985s-6.185-.07-6.185 5.77v13.88c0 6.265 3.609 8.526 8.484 8.526a20.523 20.523 0 0 0 7.06-1.304s.077-5.11-5.073-4.28zm7.852-12.154v17.676s6.185.959 6.185-4.92V9.502s-6.185-.958-6.185 4.92z" fill-rule="nonzero" fill="url(#a)"></path>
</svg>
